              Red.Faction.Origins.2011.720p.HDTV.x264-aAF
               
               
                     RELEASE DATE........: 2011.06.05

                   http://www.imdb.com/title/tt1693872/

                   Follows rebel hero Alec Mason and the Mason family.
       
                   Sci-fi movie based on the video game
                
                         Big up all scene massive! 


Video
ID                               : 3
Format                           : AVC
Format/Info                      : Advanced Video Codec
Format profile                   : High@L4.1
Format settings, CABAC           : Yes
Format settings, ReFrames        : 5 frames
Codec ID                         : V_MPEG4/ISO/AVC
Duration                         : 1h 28mn
Bit rate                         : 3 160 Kbps
Width                            : 1 280 pixels
Height                           : 720 pixels
Display aspect ratio             : 16:9
Frame rate                       : 23.976 fps
Color space                      : YUV
Chroma subsampling               : 4:2:0
Bit depth                        : 8 bits
Scan type                        : Progressive
Bits/(Pixel*Frame)               : 0.143
Stream size                      : 1.90 GiB (87%)
Writing library                  : x264 core 115 r1995 c1e60b9
Language                         : English

Audio
ID                               : 1
Format                           : AC-3
Format/Info                      : Audio Coding 3
Mode extension                   : CM (complete main)
Codec ID                         : A_AC3
Duration                         : 1h 28mn
Bit rate mode                    : Constant
Bit rate                         : 384 Kbps
Channel(s)                       : 6 channels
Channel positions                : Front: L C R, Side: L R, LFE
Sampling rate                    : 48.0 KHz
Bit depth                        : 16 bits
Compression mode                 : Lossy
Stream size                      : 242 MiB (11%)

Text
ID                               : 2
Format                           : UTF-8
Codec ID                         : S_TEXT/UTF8
Codec ID/Info                    : UTF-8 Plain Text



S C R E E N S :

  http://www.phyrefile.com/image/view/oSZB8WE7OD6h8GtN
  http://www.phyrefile.com/image/view/l1ruXEL0f3DFdKsm
  http://www.phyrefile.com/image/view/BuPpgi7uSZ6mc3uX